<mxfile modified="2023-11-20T04:50:20.677Z" host="app.diagrams.net" agent="Mozilla/5.0 (Windows NT 10.0; Win64; x64) AppleWebKit/537.36 (KHTML, like Gecko) Chrome/119.0.0.0 Safari/537.36" etag="erG71iviklqtSgbiru_8" version="22.1.3" type="github">
  <diagram id="Ht1M8jgEwFfnCIfOTk4-" name="Page-1">
    <mxGraphModel dx="1290" dy="577" grid="1" gridSize="10" guides="1" tooltips="1" connect="1" arrows="1" fold="1" page="1" pageScale="1" pageWidth="827" pageHeight="1169" math="0" shadow="0">
      <root>
        <mxCell id="0" />
        <mxCell id="1" parent="0" />
        <mxCell id="imyj3Zp-e5OPN9J0XzXH-4" value="AWS Cloud" style="points=[[0,0],[0.25,0],[0.5,0],[0.75,0],[1,0],[1,0.25],[1,0.5],[1,0.75],[1,1],[0.75,1],[0.5,1],[0.25,1],[0,1],[0,0.75],[0,0.5],[0,0.25]];outlineConnect=0;gradientColor=none;html=1;whiteSpace=wrap;fontSize=12;fontStyle=0;container=1;pointerEvents=0;collapsible=0;recursiveResize=0;shape=mxgraph.aws4.group;grIcon=mxgraph.aws4.group_aws_cloud_alt;strokeColor=#232F3E;fillColor=none;verticalAlign=top;align=left;spacingLeft=30;fontColor=#232F3E;dashed=0;" parent="1" vertex="1">
          <mxGeometry x="40" y="100" width="880" height="710" as="geometry" />
        </mxCell>
        <mxCell id="imyj3Zp-e5OPN9J0XzXH-5" value="Region" style="points=[[0,0],[0.25,0],[0.5,0],[0.75,0],[1,0],[1,0.25],[1,0.5],[1,0.75],[1,1],[0.75,1],[0.5,1],[0.25,1],[0,1],[0,0.75],[0,0.5],[0,0.25]];outlineConnect=0;gradientColor=none;html=1;whiteSpace=wrap;fontSize=12;fontStyle=0;container=1;pointerEvents=0;collapsible=0;recursiveResize=0;shape=mxgraph.aws4.group;grIcon=mxgraph.aws4.group_region;strokeColor=#147EBA;fillColor=none;verticalAlign=top;align=left;spacingLeft=30;fontColor=#147EBA;dashed=1;" parent="imyj3Zp-e5OPN9J0XzXH-4" vertex="1">
          <mxGeometry x="30" y="30" width="820" height="660" as="geometry" />
        </mxCell>
        <mxCell id="imyj3Zp-e5OPN9J0XzXH-1" value="VPC&lt;br&gt;10.0.0.0/16" style="points=[[0,0],[0.25,0],[0.5,0],[0.75,0],[1,0],[1,0.25],[1,0.5],[1,0.75],[1,1],[0.75,1],[0.5,1],[0.25,1],[0,1],[0,0.75],[0,0.5],[0,0.25]];outlineConnect=0;gradientColor=none;html=1;whiteSpace=wrap;fontSize=12;fontStyle=0;container=1;pointerEvents=0;collapsible=0;recursiveResize=0;shape=mxgraph.aws4.group;grIcon=mxgraph.aws4.group_vpc;strokeColor=#248814;fillColor=none;verticalAlign=top;align=left;spacingLeft=30;fontColor=#AAB7B8;dashed=0;" parent="imyj3Zp-e5OPN9J0XzXH-5" vertex="1">
          <mxGeometry x="30" y="30" width="760" height="600" as="geometry" />
        </mxCell>
        <mxCell id="imyj3Zp-e5OPN9J0XzXH-10" value="Public subnet 2&lt;br&gt;10.0.3.0/24" style="points=[[0,0],[0.25,0],[0.5,0],[0.75,0],[1,0],[1,0.25],[1,0.5],[1,0.75],[1,1],[0.75,1],[0.5,1],[0.25,1],[0,1],[0,0.75],[0,0.5],[0,0.25]];outlineConnect=0;gradientColor=none;html=1;whiteSpace=wrap;fontSize=12;fontStyle=0;container=1;pointerEvents=0;collapsible=0;recursiveResize=0;shape=mxgraph.aws4.group;grIcon=mxgraph.aws4.group_security_group;grStroke=0;strokeColor=#248814;fillColor=#E9F3E6;verticalAlign=top;align=left;spacingLeft=30;fontColor=#248814;dashed=0;" parent="imyj3Zp-e5OPN9J0XzXH-1" vertex="1">
          <mxGeometry x="470" y="50" width="240" height="180" as="geometry" />
        </mxCell>
        <mxCell id="imyj3Zp-e5OPN9J0XzXH-13" value="Internet gateway" style="sketch=0;outlineConnect=0;fontColor=#232F3E;gradientColor=none;fillColor=#8C4FFF;strokeColor=none;dashed=0;verticalLabelPosition=bottom;verticalAlign=top;align=center;html=1;fontSize=12;fontStyle=0;aspect=fixed;pointerEvents=1;shape=mxgraph.aws4.internet_gateway;" parent="imyj3Zp-e5OPN9J0XzXH-1" vertex="1">
          <mxGeometry x="340" y="-20" width="40" height="40" as="geometry" />
        </mxCell>
        <mxCell id="dw_3kM0TEdpE_ayh5vgC-2" value="Virtual private gateway" style="sketch=0;outlineConnect=0;fontColor=#232F3E;gradientColor=none;fillColor=#8C4FFF;strokeColor=none;dashed=0;verticalLabelPosition=bottom;verticalAlign=top;align=center;html=1;fontSize=12;fontStyle=0;aspect=fixed;pointerEvents=1;shape=mxgraph.aws4.vpn_gateway;" parent="imyj3Zp-e5OPN9J0XzXH-1" vertex="1">
          <mxGeometry x="360" y="560" width="40" height="40" as="geometry" />
        </mxCell>
        <mxCell id="imyj3Zp-e5OPN9J0XzXH-14" value="Application load balancer" style="sketch=0;outlineConnect=0;fontColor=#232F3E;gradientColor=none;fillColor=#8C4FFF;strokeColor=none;dashed=0;verticalLabelPosition=bottom;verticalAlign=top;align=center;html=1;fontSize=12;fontStyle=0;aspect=fixed;pointerEvents=1;shape=mxgraph.aws4.application_load_balancer;" parent="imyj3Zp-e5OPN9J0XzXH-1" vertex="1">
          <mxGeometry x="370" y="145" width="40" height="40" as="geometry" />
        </mxCell>
        <mxCell id="imyj3Zp-e5OPN9J0XzXH-8" value="Public subnet 1&lt;br&gt;10.0.1.0/24" style="points=[[0,0],[0.25,0],[0.5,0],[0.75,0],[1,0],[1,0.25],[1,0.5],[1,0.75],[1,1],[0.75,1],[0.5,1],[0.25,1],[0,1],[0,0.75],[0,0.5],[0,0.25]];outlineConnect=0;gradientColor=none;html=1;whiteSpace=wrap;fontSize=12;fontStyle=0;container=1;pointerEvents=0;collapsible=0;recursiveResize=0;shape=mxgraph.aws4.group;grIcon=mxgraph.aws4.group_security_group;grStroke=0;strokeColor=#248814;fillColor=#E9F3E6;verticalAlign=top;align=left;spacingLeft=30;fontColor=#248814;dashed=0;" parent="imyj3Zp-e5OPN9J0XzXH-1" vertex="1">
          <mxGeometry x="70" y="50" width="240" height="190" as="geometry" />
        </mxCell>
        <mxCell id="dw_3kM0TEdpE_ayh5vgC-1" value="NAT gateway" style="sketch=0;outlineConnect=0;fontColor=#232F3E;gradientColor=none;fillColor=#8C4FFF;strokeColor=none;dashed=0;verticalLabelPosition=bottom;verticalAlign=top;align=center;html=1;fontSize=12;fontStyle=0;aspect=fixed;pointerEvents=1;shape=mxgraph.aws4.nat_gateway;" parent="imyj3Zp-e5OPN9J0XzXH-8" vertex="1">
          <mxGeometry x="170" y="10" width="40" height="40" as="geometry" />
        </mxCell>
        <mxCell id="imyj3Zp-e5OPN9J0XzXH-23" value="Bastion Host Security group" style="fillColor=none;strokeColor=#DD3522;verticalAlign=top;fontStyle=0;fontColor=#DD3522;whiteSpace=wrap;html=1;" parent="imyj3Zp-e5OPN9J0XzXH-8" vertex="1">
          <mxGeometry x="20" y="80" width="190" height="90" as="geometry" />
        </mxCell>
        <mxCell id="8zWxKAhYYqGUHjHSyBKX-1" value="Bastion host" style="sketch=0;outlineConnect=0;fontColor=#232F3E;gradientColor=none;fillColor=#ED7100;strokeColor=none;dashed=0;verticalLabelPosition=bottom;verticalAlign=top;align=center;html=1;fontSize=12;fontStyle=0;aspect=fixed;pointerEvents=1;shape=mxgraph.aws4.instance2;" parent="imyj3Zp-e5OPN9J0XzXH-8" vertex="1">
          <mxGeometry x="90" y="102.5" width="45" height="45" as="geometry" />
        </mxCell>
        <mxCell id="imyj3Zp-e5OPN9J0XzXH-11" value="Private subnet 1&lt;br&gt;10.0.2.0/24" style="points=[[0,0],[0.25,0],[0.5,0],[0.75,0],[1,0],[1,0.25],[1,0.5],[1,0.75],[1,1],[0.75,1],[0.5,1],[0.25,1],[0,1],[0,0.75],[0,0.5],[0,0.25]];outlineConnect=0;gradientColor=none;html=1;whiteSpace=wrap;fontSize=12;fontStyle=0;container=1;pointerEvents=0;collapsible=0;recursiveResize=0;shape=mxgraph.aws4.group;grIcon=mxgraph.aws4.group_security_group;grStroke=0;strokeColor=#147EBA;fillColor=#E6F2F8;verticalAlign=top;align=left;spacingLeft=30;fontColor=#147EBA;dashed=0;" parent="imyj3Zp-e5OPN9J0XzXH-1" vertex="1">
          <mxGeometry x="70" y="250" width="240" height="310" as="geometry" />
        </mxCell>
        <mxCell id="dw_3kM0TEdpE_ayh5vgC-5" value="DB Security group" style="fillColor=none;strokeColor=#DD3522;verticalAlign=top;fontStyle=0;fontColor=#DD3522;whiteSpace=wrap;html=1;" parent="imyj3Zp-e5OPN9J0XzXH-11" vertex="1">
          <mxGeometry x="20" y="200" width="190" height="90" as="geometry" />
        </mxCell>
        <mxCell id="imyj3Zp-e5OPN9J0XzXH-19" value="" style="sketch=0;outlineConnect=0;fontColor=#232F3E;gradientColor=none;fillColor=#C925D1;strokeColor=none;dashed=0;verticalLabelPosition=bottom;verticalAlign=top;align=center;html=1;fontSize=12;fontStyle=0;aspect=fixed;pointerEvents=1;shape=mxgraph.aws4.rds_mariadb_instance;" parent="imyj3Zp-e5OPN9J0XzXH-11" vertex="1">
          <mxGeometry x="95" y="230" width="40" height="40" as="geometry" />
        </mxCell>
        <mxCell id="imyj3Zp-e5OPN9J0XzXH-12" value="Private subnet 2&lt;br&gt;10.0.4.0/24" style="points=[[0,0],[0.25,0],[0.5,0],[0.75,0],[1,0],[1,0.25],[1,0.5],[1,0.75],[1,1],[0.75,1],[0.5,1],[0.25,1],[0,1],[0,0.75],[0,0.5],[0,0.25]];outlineConnect=0;gradientColor=none;html=1;whiteSpace=wrap;fontSize=12;fontStyle=0;container=1;pointerEvents=0;collapsible=0;recursiveResize=0;shape=mxgraph.aws4.group;grIcon=mxgraph.aws4.group_security_group;grStroke=0;strokeColor=#147EBA;fillColor=#E6F2F8;verticalAlign=top;align=left;spacingLeft=30;fontColor=#147EBA;dashed=0;" parent="imyj3Zp-e5OPN9J0XzXH-1" vertex="1">
          <mxGeometry x="470" y="250" width="240" height="310" as="geometry" />
        </mxCell>
        <mxCell id="dw_3kM0TEdpE_ayh5vgC-12" value="DB Security group" style="fillColor=none;strokeColor=#DD3522;verticalAlign=top;fontStyle=0;fontColor=#DD3522;whiteSpace=wrap;html=1;" parent="imyj3Zp-e5OPN9J0XzXH-12" vertex="1">
          <mxGeometry x="20" y="200" width="200" height="90" as="geometry" />
        </mxCell>
        <mxCell id="dw_3kM0TEdpE_ayh5vgC-13" value="" style="sketch=0;outlineConnect=0;fontColor=#232F3E;gradientColor=none;fillColor=#C925D1;strokeColor=none;dashed=0;verticalLabelPosition=bottom;verticalAlign=top;align=center;html=1;fontSize=12;fontStyle=0;aspect=fixed;pointerEvents=1;shape=mxgraph.aws4.rds_mariadb_instance;" parent="imyj3Zp-e5OPN9J0XzXH-12" vertex="1">
          <mxGeometry x="100" y="230" width="40" height="40" as="geometry" />
        </mxCell>
        <mxCell id="dw_3kM0TEdpE_ayh5vgC-14" value="Auto Scaling group&lt;br&gt;&lt;font color=&quot;#000000&quot;&gt;App tier&lt;/font&gt;" style="points=[[0,0],[0.25,0],[0.5,0],[0.75,0],[1,0],[1,0.25],[1,0.5],[1,0.75],[1,1],[0.75,1],[0.5,1],[0.25,1],[0,1],[0,0.75],[0,0.5],[0,0.25]];outlineConnect=0;gradientColor=none;html=1;whiteSpace=wrap;fontSize=12;fontStyle=0;container=1;pointerEvents=0;collapsible=0;recursiveResize=0;shape=mxgraph.aws4.groupCenter;grIcon=mxgraph.aws4.group_auto_scaling_group;grStroke=1;strokeColor=#D86613;fillColor=none;verticalAlign=top;align=center;fontColor=#D86613;dashed=1;spacingTop=25;" parent="imyj3Zp-e5OPN9J0XzXH-1" vertex="1">
          <mxGeometry x="80" y="290" width="620" height="130" as="geometry" />
        </mxCell>
        <mxCell id="dw_3kM0TEdpE_ayh5vgC-16" value="EC2 instances" style="sketch=0;outlineConnect=0;fontColor=#232F3E;gradientColor=none;fillColor=#ED7100;strokeColor=none;dashed=0;verticalLabelPosition=bottom;verticalAlign=top;align=center;html=1;fontSize=12;fontStyle=0;aspect=fixed;pointerEvents=1;shape=mxgraph.aws4.instances;" parent="dw_3kM0TEdpE_ayh5vgC-14" vertex="1">
          <mxGeometry x="80" y="51" width="38" height="38" as="geometry" />
        </mxCell>
        <mxCell id="dw_3kM0TEdpE_ayh5vgC-17" value="EC2 instances" style="sketch=0;outlineConnect=0;fontColor=#232F3E;gradientColor=none;fillColor=#ED7100;strokeColor=none;dashed=0;verticalLabelPosition=bottom;verticalAlign=top;align=center;html=1;fontSize=12;fontStyle=0;aspect=fixed;pointerEvents=1;shape=mxgraph.aws4.instances;" parent="dw_3kM0TEdpE_ayh5vgC-14" vertex="1">
          <mxGeometry x="480" y="51" width="38" height="38" as="geometry" />
        </mxCell>
        <mxCell id="dw_3kM0TEdpE_ayh5vgC-20" value="Application Security group" style="fillColor=none;strokeColor=#DD3522;verticalAlign=top;fontStyle=0;fontColor=#DD3522;whiteSpace=wrap;html=1;" parent="dw_3kM0TEdpE_ayh5vgC-14" vertex="1">
          <mxGeometry x="10" y="10" width="190" height="110" as="geometry" />
        </mxCell>
        <mxCell id="dw_3kM0TEdpE_ayh5vgC-21" value="Application Security group" style="fillColor=none;strokeColor=#DD3522;verticalAlign=top;fontStyle=0;fontColor=#DD3522;whiteSpace=wrap;html=1;" parent="dw_3kM0TEdpE_ayh5vgC-14" vertex="1">
          <mxGeometry x="410" y="10" width="200" height="110" as="geometry" />
        </mxCell>
        <mxCell id="f0mABpdPzA5xC8I9HmoW-1" value="ALB Security group" style="fillColor=none;strokeColor=#DD3522;verticalAlign=top;fontStyle=0;fontColor=#DD3522;whiteSpace=wrap;html=1;" parent="imyj3Zp-e5OPN9J0XzXH-1" vertex="1">
          <mxGeometry x="320" y="110" width="140" height="110" as="geometry" />
        </mxCell>
        <mxCell id="f0mABpdPzA5xC8I9HmoW-2" value="DB Subnet group" style="fillColor=none;strokeColor=#5A6C86;dashed=1;verticalAlign=top;fontStyle=0;fontColor=#5A6C86;whiteSpace=wrap;html=1;" parent="imyj3Zp-e5OPN9J0XzXH-1" vertex="1">
          <mxGeometry x="80" y="430" width="620" height="120" as="geometry" />
        </mxCell>
        <mxCell id="BAu4U4TwgxxG4vrqDwOP-1" value="Availability Zone" style="fillColor=none;strokeColor=#147EBA;dashed=1;verticalAlign=top;fontStyle=0;fontColor=#147EBA;whiteSpace=wrap;html=1;" vertex="1" parent="imyj3Zp-e5OPN9J0XzXH-1">
          <mxGeometry x="70" y="-20" width="240" height="600" as="geometry" />
        </mxCell>
        <mxCell id="BAu4U4TwgxxG4vrqDwOP-2" value="Availability Zone" style="fillColor=none;strokeColor=#147EBA;dashed=1;verticalAlign=top;fontStyle=0;fontColor=#147EBA;whiteSpace=wrap;html=1;" vertex="1" parent="imyj3Zp-e5OPN9J0XzXH-1">
          <mxGeometry x="470" y="-20" width="240" height="600" as="geometry" />
        </mxCell>
        <mxCell id="imyj3Zp-e5OPN9J0XzXH-15" value="On-premises network" style="points=[[0,0],[0.25,0],[0.5,0],[0.75,0],[1,0],[1,0.25],[1,0.5],[1,0.75],[1,1],[0.75,1],[0.5,1],[0.25,1],[0,1],[0,0.75],[0,0.5],[0,0.25]];outlineConnect=0;gradientColor=none;html=1;whiteSpace=wrap;fontSize=12;fontStyle=0;container=1;pointerEvents=0;collapsible=0;recursiveResize=0;shape=mxgraph.aws4.group;grIcon=mxgraph.aws4.group_on_premise;strokeColor=#5A6C86;fillColor=none;verticalAlign=top;align=left;spacingLeft=30;fontColor=#5A6C86;dashed=0;" parent="1" vertex="1">
          <mxGeometry x="120" y="950" width="650" height="270" as="geometry" />
        </mxCell>
        <mxCell id="2JOdow-BoVT7XSH0DS5i-4" value="" style="image;aspect=fixed;html=1;points=[];align=center;fontSize=12;image=img/lib/azure2/databases/SQL_Server.svg;" parent="imyj3Zp-e5OPN9J0XzXH-15" vertex="1">
          <mxGeometry x="220" y="110" width="50" height="50" as="geometry" />
        </mxCell>
        <mxCell id="dw_3kM0TEdpE_ayh5vgC-11" style="edgeStyle=orthogonalEdgeStyle;rounded=0;orthogonalLoop=1;jettySize=auto;html=1;" parent="imyj3Zp-e5OPN9J0XzXH-15" source="dw_3kM0TEdpE_ayh5vgC-3" target="dw_3kM0TEdpE_ayh5vgC-6" edge="1">
          <mxGeometry relative="1" as="geometry" />
        </mxCell>
        <mxCell id="dw_3kM0TEdpE_ayh5vgC-3" value="Customer Gateway" style="sketch=0;outlineConnect=0;fontColor=#232F3E;gradientColor=none;fillColor=#8C4FFF;strokeColor=none;dashed=0;verticalLabelPosition=bottom;verticalAlign=top;align=center;html=1;fontSize=12;fontStyle=0;aspect=fixed;pointerEvents=1;shape=mxgraph.aws4.router;" parent="imyj3Zp-e5OPN9J0XzXH-15" vertex="1">
          <mxGeometry x="340" y="-20" width="40" height="40" as="geometry" />
        </mxCell>
        <mxCell id="dw_3kM0TEdpE_ayh5vgC-8" style="rounded=0;orthogonalLoop=1;jettySize=auto;html=1;edgeStyle=orthogonalEdgeStyle;" parent="imyj3Zp-e5OPN9J0XzXH-15" source="dw_3kM0TEdpE_ayh5vgC-6" target="2JOdow-BoVT7XSH0DS5i-4" edge="1">
          <mxGeometry relative="1" as="geometry" />
        </mxCell>
        <mxCell id="dw_3kM0TEdpE_ayh5vgC-6" value="" style="sketch=0;outlineConnect=0;fontColor=#232F3E;gradientColor=none;fillColor=#232F3D;strokeColor=none;dashed=0;verticalLabelPosition=bottom;verticalAlign=top;align=center;html=1;fontSize=12;fontStyle=0;aspect=fixed;pointerEvents=1;shape=mxgraph.aws4.traditional_server;" parent="imyj3Zp-e5OPN9J0XzXH-15" vertex="1">
          <mxGeometry x="338.65" y="98" width="42.69" height="74" as="geometry" />
        </mxCell>
        <mxCell id="2JOdow-BoVT7XSH0DS5i-17" value="" style="endArrow=classic;startArrow=classic;html=1;rounded=0;" parent="1" source="dw_3kM0TEdpE_ayh5vgC-3" edge="1">
          <mxGeometry width="50" height="50" relative="1" as="geometry">
            <mxPoint x="420" y="800" as="sourcePoint" />
            <mxPoint x="480" y="760" as="targetPoint" />
          </mxGeometry>
        </mxCell>
        <mxCell id="2JOdow-BoVT7XSH0DS5i-1" value="VPN Tunnel" style="sketch=0;outlineConnect=0;fontColor=#232F3E;gradientColor=none;fillColor=#8C4FFF;strokeColor=none;dashed=0;verticalLabelPosition=bottom;verticalAlign=top;align=center;html=1;fontSize=12;fontStyle=0;aspect=fixed;pointerEvents=1;shape=mxgraph.aws4.vpn_connection;" parent="1" vertex="1">
          <mxGeometry x="500" y="830" width="35.91" height="40" as="geometry" />
        </mxCell>
        <mxCell id="f0mABpdPzA5xC8I9HmoW-4" style="edgeStyle=orthogonalEdgeStyle;rounded=0;orthogonalLoop=1;jettySize=auto;html=1;" parent="1" source="f0mABpdPzA5xC8I9HmoW-3" target="f0mABpdPzA5xC8I9HmoW-1" edge="1">
          <mxGeometry relative="1" as="geometry" />
        </mxCell>
        <mxCell id="f0mABpdPzA5xC8I9HmoW-3" value="Users" style="sketch=0;outlineConnect=0;fontColor=#232F3E;gradientColor=none;fillColor=#232F3D;strokeColor=none;dashed=0;verticalLabelPosition=bottom;verticalAlign=top;align=center;html=1;fontSize=12;fontStyle=0;aspect=fixed;pointerEvents=1;shape=mxgraph.aws4.users;" parent="1" vertex="1">
          <mxGeometry x="460" y="10" width="60" height="60" as="geometry" />
        </mxCell>
      </root>
    </mxGraphModel>
  </diagram>
</mxfile>
